<svg xmlns="http://www.w3.org/2000/svg" viewBox="0 0 73 22"><defs><style>.cls-1{fill:#f60;}</style></defs><title>set-volcano-logo</title><g id="Settings_VOLCANO" data-name="Settings VOLCANO"><path id="VOLCANO-Logo" class="cls-1" d="M3.16,2.18c1.51,0,1.88.21,1.74,1.58s-1.22,8.72-1.4,11C4.18,13.7,7,9.5,8.33,7.67S11.49,3.22,13.28.85C14,0,14.61.24,15.33.78a1.33,1.33,0,0,1,.4,2.05c-.61.82-3.55,4.87-4.73,6.6a10.21,10.21,0,0,1,2.24-.86A3,3,0,0,1,15.76,9c.32.36.53.5.86.39a15.51,15.51,0,0,0,2-.86,7.92,7.92,0,0,0,2.83-2.15,35.58,35.58,0,0,1,3-5.13c.82-1.19,1.43-1.51,2.4-1s.79,1.84.25,2.95S25.73,5.37,25.41,6s-1.26,2.48-1.87,3.73a29.76,29.76,0,0,0-1.58,4c-.14.64-.1.79.29.43a37.41,37.41,0,0,0,2.83-3.2A10.77,10.77,0,0,1,28.67,6a5.15,5.15,0,0,1,4.24-1.08,1.57,1.57,0,0,1,1,2.41c-.65.86-1.22.93-1.55.79a1.06,1.06,0,0,0-1.14,0,8,8,0,0,0-2.8,4.26c-.25.71-.18,1.33,0,1.22,1.29-.78,3-2.15,4.27-3.15A11.57,11.57,0,0,1,35.13,7a13.31,13.31,0,0,1,4.92-3.48,7.14,7.14,0,0,1,3.44.07c.65.18,1.63.41,2.37.64,1,.33.9,1,.54,1.65s-1.48,2.66-2,3.88A23.76,23.76,0,0,0,46.9,7.6c1.08-1,3.09-3.3,5-5.31.61-.65,1.58-.22,2,.14a1.34,1.34,0,0,1,.47,1.72,19.08,19.08,0,0,0-1.58,3.2c.65-.61,2.41-2.55,3.41-3.56A16.17,16.17,0,0,1,58.6,1.64c.64-.39,1.43.11,1.93.61s.76.86.54,1.29-1,1.55-1.4,2.44a28.86,28.86,0,0,0-1.43,3c.39-.28,1-.79,1.43-1a15.19,15.19,0,0,0,1.94-1.68c.25-.51.67-1.08,1.15-1.83C63.51,3.29,65.92,1,67.82.64c.86-.17,1.58.35,2.37.61a2.89,2.89,0,0,1,1.68,1.5c.82,1.49,0,3.84-1.58,5.56a13.68,13.68,0,0,1-4.91,3.56,3.27,3.27,0,0,1-2.76-.22,2.33,2.33,0,0,1-1.51-2.26,33.25,33.25,0,0,1-2.66,2.37,5.9,5.9,0,0,1-2.08,1,2.47,2.47,0,0,1-1.65-.57,1.23,1.23,0,0,1-.46-1.58A13.84,13.84,0,0,1,55.33,8c.29-.47.15-.47,0-.33s-1.19,1.4-1.87,2.12-2,2.37-2.66,3.19a.91.91,0,0,1-1.14.33,2.94,2.94,0,0,1-1.48-1.15,1.74,1.74,0,0,1,.11-1.76,7.18,7.18,0,0,1,1-1.65c.22-.26.11-.39-.14-.18s-1.22,1.44-1.79,2-2.48,2.37-3.2,3-1.07.9-1.65.79a3.91,3.91,0,0,1-1.83-.86,1.49,1.49,0,0,1,0-1.58c-.65.51-2.09,2-3.27,2.84a3,3,0,0,1-3.19.29c-.52-.18-1.65-1.33-1.22-2.19a46.61,46.61,0,0,1-4.84,3.55,2.19,2.19,0,0,1-2.26.18,2.25,2.25,0,0,1-1.22-2.05c-.65.65-1.73,1.62-2.84,2.73a1.51,1.51,0,0,1-2,.43c-1.12-.43-1.44-.93-1.47-1.47s0-1,0-1.51a16.61,16.61,0,0,1,1.22-4.12c-.69.32-1.22.57-1.83.82.18,1.76-.44,3.3-1.8,5.24S12.27,20,11.09,20a6.31,6.31,0,0,1-2.76-.72A3.18,3.18,0,0,1,7,16c0-.33-.11-.43-.11-.43-.64,1-2,3.26-3.48,5.63-.43.72-.86.9-1.15.83a4.07,4.07,0,0,1-1.43-.76c-.58-.46-.86-.68-.83-1.5S.43,13.19.68,10c.14-1.65.61-5.52.76-6.78.11-.94.68-1.06,1.72-1.08M10.3,17.25a5.73,5.73,0,0,0,3.37-2.55,4.47,4.47,0,0,0,.94-2.19c-.68,0-1.26-.21-1.29-1,0-.14-.2-.23-.65.18a7.47,7.47,0,0,0-2.4,3.59c-.26,1-.46,2.14,0,2m31.5-11a7.64,7.64,0,0,0-3.3,1.9A11.68,11.68,0,0,0,36,11.8c-.29.57-.36.86.43.32a46.29,46.29,0,0,0,3.94-3.34,17.14,17.14,0,0,0,1.73-2.26c.12-.2.24-.37-.26-.25M68.57,3.51a8.6,8.6,0,0,0-1.65.93,12.9,12.9,0,0,0-2,2.22,3,3,0,0,0-.51,2.44c.15.22.72.26,1.58-.43A16,16,0,0,0,69.11,5c.47-1.33.07-1.8-.54-1.47"/></g></svg>